<?xml version="1.0" encoding="utf-8"?>
<!-- Generator: Adobe Illustrator 19.1.0, SVG Export Plug-In . SVG Version: 6.00 Build 0)  -->
<svg version="1.1" xmlns="http://www.w3.org/2000/svg" xmlns:xlink="http://www.w3.org/1999/xlink" x="0px" y="0px"
	 viewBox="-5691.901 -4018.785 916.384 556" enable-background="new -5691.901 -4018.785 916.384 556" xml:space="preserve">
<g id="svg2" xmlns:cc="http://creativecommons.org/ns#" xmlns:dc="http://purl.org/dc/elements/1.1/" xmlns:rdf="http://www.w3.org/1999/02/22-rdf-syntax-ns#" xmlns:svg="http://www.w3.org/2000/svg" xmlns:inkscape="http://www.inkscape.org/namespaces/inkscape" xmlns:sodipodi="http://sodipodi.sourceforge.net/DTD/sodipodi-0.dtd" inkscape:version="0.48.2 r9819" sodipodi:docname="logo_bez.svg">
	<g>
		<path fill="#FFFFFF" d="M-5213.07-3759.249c0.9,2.49,1.35,5.19,1.35,8.11c0,3.18-0.51,6.07-1.521,8.67
			c-1.01,2.6-2.44,4.82-4.31,6.65c-1.86,1.83-4.09,3.25-6.69,4.26c-2.6,1.01-5.49,1.52-8.67,1.52h-11.55v26.24h-12.62v-67.66h24.17
			c3.5,0,6.57,0.51,9.2,1.52s4.84,2.43,6.62,4.24C-5215.31-3763.889-5213.97-3761.739-5213.07-3759.249z"/>
		<rect x="-5204.21" y="-3771.458" fill="#FFFFFF" width="12.66" height="67.66"/>
		<path fill="#FFFFFF" d="M-5142.12-3734.758l13.05,30.96h-13.72l-11.27-28.22h-13.1v28.22h-12.62v-67.66h28.32
			c3.4,0,6.39,0.49,8.98,1.45c2.58,0.96,4.74,2.3,6.47,4.02c1.74,1.72,3.05,3.76,3.93,6.11c0.88,2.36,1.32,4.94,1.32,7.73
			c0,2.06-0.26,3.98-0.79,5.78c-0.53,1.8-1.29,3.44-2.26,4.91c-0.98,1.48-2.17,2.79-3.57,3.93
			C-5138.77-3736.389-5140.36-3735.468-5142.12-3734.758z"/>
		<polygon fill="#FFFFFF" points="-5092.09,-3777.858 -5101.86,-3777.858 -5093.39,-3790.909 -5081.54,-3790.909 
			-5081.44,-3790.619 		"/>
		<polygon fill="#FFFFFF" points="-5087.75,-3771.458 -5065.99,-3703.798 -5078.89,-3703.798 -5083.03,-3717.088 
			-5107.98,-3717.088 -5112.02,-3703.798 -5124.25,-3703.798 -5102.44,-3771.458 		"/>
		<polygon fill="#FFFFFF" points="-5070.26,-3771.458 -5024.13,-3771.458 -5024.13,-3760.188 -5040.89,-3760.188 
			-5040.89,-3703.798 -5053.51,-3703.798 -5053.51,-3760.188 -5070.26,-3760.188 		"/>
		<rect x="-5014.85" y="-3771.458" fill="#FFFFFF" width="12.66" height="67.66"/>
		<path d="M-5213.07-3759.249c-0.9-2.49-2.24-4.64-4.02-6.45c-1.78-1.81-3.99-3.229-6.62-4.24s-5.7-1.52-9.2-1.52h-24.17v67.66
			h12.62v-26.24h11.55c3.18,0,6.07-0.51,8.67-1.52c2.6-1.01,4.83-2.43,6.69-4.26c1.87-1.83,3.3-4.05,4.31-6.65
			c1.01-2.6,1.521-5.49,1.521-8.67C-5211.72-3754.059-5212.17-3756.758-5213.07-3759.249z M-5227.15-3743.818
			c-1.62,1.77-3.98,2.65-7.06,2.65h-10.25v-19.02h10.25c3.02,0,5.35,0.81,7.01,2.43c1.65,1.62,2.48,3.83,2.48,6.62
			C-5224.72-3748.019-5225.53-3745.579-5227.15-3743.818z"/>
		<path d="M-5204.21-3771.458v67.66h12.66v-67.66H-5204.21z"/>
		<path d="M-5014.85-3771.458v67.66h12.66v-67.66H-5014.85z"/>
		<path d="M-5142.12-3734.758c1.76-0.71,3.35-1.63,4.74-2.77c1.4-1.14,2.59-2.45,3.57-3.93c0.97-1.47,1.73-3.11,2.26-4.91
			c0.53-1.8,0.79-3.72,0.79-5.78c0-2.79-0.44-5.37-1.32-7.73c-0.88-2.35-2.19-4.39-3.93-6.11c-1.73-1.72-3.89-3.06-6.47-4.02
			c-2.59-0.96-5.58-1.45-8.98-1.45h-28.32v67.66h12.62v-28.22h13.1l11.27,28.22h13.72L-5142.12-3734.758z M-5146.5-3745.528
			c-1.42,1.59-3.66,2.39-6.74,2.39h-13.92v-17.05h14.4c2.92,0,5.05,0.72,6.38,2.17c1.33,1.44,2,3.4,2,5.87
			C-5144.38-3749.318-5145.09-3747.108-5146.5-3745.528z"/>
		<path d="M-5081.54-3790.909h-11.85l-8.47,13.05h9.77l10.65-12.76L-5081.54-3790.909z M-5087.75-3771.458h-14.69l-21.81,67.66
			h12.23l4.04-13.29h24.95l4.14,13.29h12.9L-5087.75-3771.458z M-5104.51-3728.358l6.89-22.58c0.25-0.77,0.49-1.69,0.72-2.75
			c0.22-1.06,0.43-2.05,0.62-2.98c0.23-1.09,0.44-2.23,0.63-3.42h0.39c0.16,1.09,0.35,2.16,0.57,3.22c0.16,0.94,0.37,1.93,0.63,2.99
			c0.26,1.06,0.51,2.04,0.77,2.94l6.79,22.58H-5104.51z"/>
		<path d="M-5070.26-3771.458v11.27h16.75v56.39h12.62v-56.39h16.76v-11.27H-5070.26z"/>
		<path fill="#FFFFFF" d="M-5384.9-3747.699c-3.14,14.91-19.43,22.7-28.94,29.14v-75.44
			C-5397.61-3790.088-5378.57-3777.648-5384.9-3747.699z"/>
		<path fill="#FFFFFF" d="M-5292.8-3802.208h-7.38c-0.01-0.03-0.02-0.05-0.05-0.07h7.38
			C-5292.83-3802.258-5292.81-3802.229-5292.8-3802.208z"/>
		<g>
			<path d="M-5304.96-3808.159c-0.09-0.1-0.18-0.21-0.27-0.31c-1.46-1.69-2.99-3.33-4.58-4.92c-0.06-0.07-0.13-0.14-0.2-0.21
				c-19.44-19.44-45.3-30.15-72.8-30.15c-27.51,0-53.37,10.71-72.81,30.15c-19.44,19.45-30.15,45.3-30.15,72.81
				c0,27.5,10.71,53.36,30.15,72.8c19.44,19.45,45.3,30.16,72.81,30.16c27.5,0,53.36-10.71,72.8-30.16
				c0.87-0.87,1.74-1.75,2.57-2.66c0.87-0.93,1.71-1.87,2.53-2.83h331.62l1.12-5.88l23.47-122.92l1.12-5.88H-5304.96z
				 M-5382.81-3647.619c-51.37,0-93.17-41.8-93.17-93.17s41.8-93.17,93.17-93.17c27.86,0,52.91,12.3,69.99,31.75
				c14.43,16.41,23.18,37.92,23.18,61.42c0,12.12-2.33,23.71-6.56,34.35C-5309.9-3672.019-5343.56-3647.619-5382.81-3647.619z
				 M-4978.15-3679.358h-322.02c2.38-3.19,4.57-6.51,6.55-9.93c8.58-14.79,13.33-31.55,13.74-49.04c0.02-0.82,0.03-1.64,0.03-2.46
				c0-0.82-0.01-1.64-0.04-2.46c-0.5-21.53-7.57-41.96-20.29-58.96c-0.01-0.03-0.02-0.05-0.05-0.07h345.54L-4978.15-3679.358z"/>
		</g>
		<g>
			<path fill="#FFFFFF" d="M-5312.82-3802.208c-17.08-19.45-42.13-31.75-69.99-31.75c-51.37,0-93.17,41.8-93.17,93.17
				s41.8,93.17,93.17,93.17c39.25,0,72.91-24.4,86.61-58.82c4.23-10.64,6.56-22.23,6.56-34.35
				C-5289.64-3764.289-5298.39-3785.798-5312.82-3802.208z M-5406.62-3706.708c-21.32,13.45-12.85,41.32-12.23,43.31
				c-0.88-1.86-13-28.17-3.97-45.52v-86.45c-3.85-0.25-7.06,0.02-9.08,0.6c-0.57-1.24,2.95-3.17,9.08-5.05v-16.63h8.98v14.38
				c22.23-4.6,59.58-6.21,81,11.27c6.82,5.57,12.03,13.07,14.6,23.03l0.01,0.01c1.15,4.4,1.78,9.28,1.81,14.68
				C-5316.17-3713.508-5386.29-3719.528-5406.62-3706.708z"/>
		</g>
		<path d="M-5318.23-3767.758l-0.01-0.01c-2.57-9.96-7.78-17.46-14.6-23.03c-21.42-17.48-58.77-15.87-81-11.27v-14.38h-8.98v16.63
			c-6.13,1.88-9.65,3.81-9.08,5.05c2.02-0.58,5.23-0.85,9.08-0.6v86.45c-9.03,17.35,3.09,43.66,3.97,45.52
			c-0.62-1.99-9.09-29.86,12.23-43.31c20.33-12.82,90.45-6.8,90.2-46.37C-5316.45-3758.479-5317.08-3763.358-5318.23-3767.758z
			 M-5384.9-3747.699c-3.14,14.91-19.43,22.7-28.94,29.14v-75.44C-5397.61-3790.088-5378.57-3777.648-5384.9-3747.699z"/>
		<path fill="#FFFFFF" d="M-5300.18-3802.208c12.72,17,19.79,37.43,20.29,58.96c0.03,0.82,0.04,1.64,0.04,2.46
			c0,0.82-0.01,1.64-0.03,2.46c-0.41,17.49-5.16,34.25-13.74,49.04c-1.98,3.42-4.17,6.74-6.55,9.93h322.01l23.45-122.85H-5300.18z
			 M-5093.39-3790.909h11.85l0.1,0.29l-10.65,12.76h-9.77L-5093.39-3790.909z M-5213.24-3742.468c-1.01,2.6-2.44,4.82-4.31,6.65
			c-1.86,1.83-4.09,3.25-6.69,4.26c-2.6,1.01-5.49,1.52-8.67,1.52h-11.55v26.24h-12.62v-67.66h24.17c3.5,0,6.57,0.51,9.2,1.52
			s4.84,2.43,6.62,4.24c1.78,1.81,3.12,3.96,4.02,6.45s1.35,5.19,1.35,8.11C-5211.72-3747.958-5212.23-3745.068-5213.24-3742.468z
			 M-5191.55-3703.798h-12.66v-67.66h12.66V-3703.798z M-5142.79-3703.798l-11.27-28.22h-13.1v28.22h-12.62v-67.66h28.32
			c3.4,0,6.39,0.49,8.98,1.45c2.58,0.96,4.74,2.3,6.47,4.02c1.74,1.72,3.05,3.76,3.93,6.11c0.88,2.36,1.32,4.94,1.32,7.73
			c0,2.06-0.26,3.98-0.79,5.78c-0.53,1.8-1.29,3.44-2.26,4.91c-0.98,1.48-2.17,2.79-3.57,3.93c-1.39,1.14-2.98,2.06-4.74,2.77
			l13.05,30.96H-5142.79z M-5078.89-3703.798l-4.14-13.29h-24.95l-4.04,13.29h-12.23l21.81-67.66h14.69l21.76,67.66H-5078.89z
			 M-5024.13-3760.188h-16.76v56.39h-12.62v-56.39h-16.75v-11.27h46.13V-3760.188z M-5002.19-3703.798h-12.66v-67.66h12.66
			V-3703.798z"/>
	</g>
</g>
<g id="Vrstva_2">
</g>
</svg>
