<?xml version="1.0" encoding="utf-8"?>
<!-- Generator: Adobe Illustrator 19.1.0, SVG Export Plug-In . SVG Version: 6.00 Build 0)  -->
<svg version="1.1" xmlns="http://www.w3.org/2000/svg" xmlns:xlink="http://www.w3.org/1999/xlink" x="0px" y="0px"
	 viewBox="-5691.901 -6022.875 916.384 556" enable-background="new -5691.901 -6022.875 916.384 556" xml:space="preserve">
<g id="svg2" xmlns:cc="http://creativecommons.org/ns#" xmlns:dc="http://purl.org/dc/elements/1.1/" xmlns:rdf="http://www.w3.org/1999/02/22-rdf-syntax-ns#" xmlns:svg="http://www.w3.org/2000/svg" xmlns:inkscape="http://www.inkscape.org/namespaces/inkscape" xmlns:sodipodi="http://sodipodi.sourceforge.net/DTD/sodipodi-0.dtd" inkscape:version="0.48.2 r9819" sodipodi:docname="logo_bez.svg">
	<g>
		<path fill="#FFFFFF" d="M-5219.114-5798.734c0.53,1.5,0.81,3.12,0.81,4.88c0,1.91-0.31,3.64-0.92,5.2c-0.6,1.57-1.47,2.9-2.58,4
			c-1.12,1.09-2.46,1.95-4.03,2.56c-1.56,0.6-3.29,0.91-5.2,0.91h-6.94v15.76h-7.58v-40.64h14.52c2.1,0,3.94,0.3,5.52,0.91
			c1.58,0.61,2.91,1.46,3.98,2.55C-5220.464-5801.514-5219.654-5800.224-5219.114-5798.734z"/>
		<rect x="-5213.794" y="-5806.064" fill="#FFFFFF" width="7.6" height="40.64"/>
		<path fill="#FFFFFF" d="M-5176.504-5784.024l7.84,18.6h-8.24l-6.77-16.95h-7.87v16.95h-7.58v-40.64h17.01
			c2.05,0,3.84,0.29,5.4,0.87c1.55,0.58,2.85,1.38,3.89,2.41c1.04,1.03,1.82,2.26,2.35,3.68c0.54,1.41,0.8,2.96,0.8,4.64
			c0,1.23-0.16,2.39-0.48,3.47c-0.32,1.08-0.77,2.06-1.36,2.95c-0.58,0.89-1.3,1.67-2.14,2.36
			C-5174.494-5785.004-5175.444-5784.444-5176.504-5784.024z"/>
		<polygon fill="#FFFFFF" points="-5146.444,-5809.914 -5152.314,-5809.914 -5147.224,-5817.754 -5140.114,-5817.754 
			-5140.054,-5817.574 		"/>
		<polygon fill="#FFFFFF" points="-5143.844,-5806.064 -5130.764,-5765.424 -5138.514,-5765.424 -5141.004,-5773.404 
			-5155.994,-5773.404 -5158.424,-5765.424 -5165.764,-5765.424 -5152.664,-5806.064 		"/>
		<polygon fill="#FFFFFF" points="-5133.334,-5806.064 -5105.624,-5806.064 -5105.624,-5799.294 -5115.694,-5799.294 
			-5115.694,-5765.424 -5123.264,-5765.424 -5123.264,-5799.294 -5133.334,-5799.294 		"/>
		<path fill="#FFFFFF" d="M-5075.124-5782.374c0.57,1.29,0.85,2.87,0.85,4.74c0,2.34-0.35,4.32-1.06,5.96
			c-0.7,1.64-1.68,2.98-2.95,4.01c-1.26,1.03-2.77,1.78-4.52,2.26c-1.76,0.47-3.69,0.7-5.79,0.7c-1.87,0-3.65-0.26-5.35-0.79
			c-1.7-0.53-3.19-1.33-4.48-2.39c-1.3-1.06-2.32-2.38-3.08-3.96c-0.77-1.58-1.15-3.41-1.15-5.5c0-0.23,0.01-0.46,0.03-0.71
			c0.02-0.24,0.03-0.43,0.03-0.59h7.9c0,0.061-0.01,0.2-0.03,0.41s-0.03,0.39-0.03,0.55c0,0.96,0.15,1.84,0.43,2.63
			c0.29,0.79,0.72,1.47,1.28,2.04s1.24,1.01,2.04,1.31c0.8,0.31,1.72,0.47,2.76,0.47c1.14,0,2.1-0.14,2.89-0.42
			c0.79-0.28,1.43-0.65,1.91-1.1c0.48-0.45,0.83-0.97,1.04-1.53c0.21-0.57,0.32-1.16,0.32-1.75c0-0.97-0.18-1.79-0.55-2.48
			c-0.37-0.68-0.87-1.27-1.5-1.76c-0.64-0.49-1.38-0.92-2.22-1.28c-0.84-0.35-1.73-0.69-2.67-1.01c-0.95-0.32-1.92-0.64-2.92-0.97
			c-1.01-0.32-1.98-0.7-2.92-1.14c-0.95-0.43-1.84-0.95-2.68-1.55c-0.84-0.59-1.58-1.31-2.21-2.15c-0.64-0.84-1.14-1.83-1.51-2.98
			c-0.36-1.15-0.55-2.49-0.55-4.04c0-1.92,0.37-3.6,1.12-5.03c0.74-1.43,1.73-2.61,2.98-3.56c1.24-0.94,2.68-1.65,4.32-2.11
			s3.36-0.69,5.15-0.69c1.81,0,3.52,0.23,5.12,0.69s3,1.18,4.19,2.16c1.2,0.97,2.15,2.21,2.85,3.73c0.71,1.51,1.06,3.31,1.06,5.39
			v0.73h-7.75v-0.55c0-1.72-0.49-3.08-1.46-4.1c-0.98-1.01-2.33-1.52-4.07-1.52c-1.85,0-3.26,0.41-4.24,1.22
			c-0.97,0.81-1.46,1.84-1.46,3.09c0,1.03,0.29,1.87,0.86,2.54c0.56,0.66,1.31,1.23,2.24,1.7c0.92,0.47,1.97,0.89,3.15,1.25
			c1.18,0.35,2.38,0.74,3.62,1.17c1.23,0.42,2.44,0.92,3.61,1.49c1.18,0.57,2.23,1.29,3.16,2.17
			C-5076.444-5784.754-5075.694-5783.664-5075.124-5782.374z"/>
		<polygon fill="#FFFFFF" points="-5049.404,-5789.544 -5037.024,-5765.424 -5045.564,-5765.424 -5054.384,-5783.564 
			-5060.714,-5775.774 -5060.714,-5765.424 -5068.354,-5765.424 -5068.354,-5806.064 -5060.714,-5806.064 -5060.714,-5785.264 
			-5045.854,-5806.064 -5037.374,-5806.064 		"/>
		<polygon fill="#FFFFFF" points="-5015.224,-5809.914 -5021.104,-5809.914 -5016.004,-5817.754 -5008.894,-5817.754 
			-5008.834,-5817.574 		"/>
		<polygon fill="#FFFFFF" points="-4999.554,-5765.424 -5007.304,-5765.424 -5009.794,-5773.404 -5024.774,-5773.404 
			-5027.204,-5765.424 -5034.554,-5765.424 -5021.444,-5806.064 -5012.624,-5806.064 		"/>
		<path fill="#FFFFFF" d="M-5296.924-5837.514c-23.21-22.46-54.83-36.29-89.68-36.29c-71.21,0-128.93,57.72-128.93,128.93
			c0,71.2,57.72,128.93,128.93,128.93c36.34,0,69.17-15.04,92.61-39.23h277.61l1.13-5.88l14.35-75h29.61l1.13-5.88l17.15-89.7
			l1.13-5.88H-5296.924z M-4960.124-5825.754l-14.89,77.94l-1.12,5.88h-29.61l-4.63,24.07l-10.86,56.81h-275.31
			c-0.01,0.01-0.01,0.01-0.02,0.02c-0.98,1.07-2.01,2.13-3.04,3.16c-23.24,23.24-54.14,36.04-87,36.04c-32.87,0-63.77-12.8-87-36.04
			c-23.23-23.24-36.03-54.14-36.03-87c0-32.87,12.8-63.76,36.03-87c23.23-23.23,54.13-36.03,87-36.03c32.86,0,63.76,12.8,87,36.03
			c0.08,0.08,0.16,0.16,0.23,0.24h340.38L-4960.124-5825.754z"/>
		<path fill="#FFFFFF" d="M-5275.264-5744.874c0,61.39-49.95,111.34-111.34,111.34s-111.34-49.95-111.34-111.34
			c0-61.39,49.95-111.33,111.34-111.33S-5275.264-5806.264-5275.264-5744.874z"/>
		<path fill="#FFFFFF" d="M-5296.544-5661.054c-0.01,0.01-0.01,0.01-0.02,0.02v-0.02H-5296.544z"/>
		<path d="M-5005.774-5741.934l-4.6,24.07l4.63-24.07H-5005.774z M-5063.894-5724.284l-13.11,40.64h7.35l2.43-7.979h14.98
			l2.49,7.979h7.75l-13.07-40.64H-5063.894z M-5087.814-5700.854c0,0.37,0.01,0.74,0.03,1.13c0,0.44,0.01,0.92,0.03,1.44l-0.18,0.18
			c-0.23-0.52-0.45-1.02-0.66-1.51c-0.19-0.4-0.4-0.82-0.62-1.24c-0.22-0.42-0.41-0.77-0.57-1.04l-12.55-22.39h-6.68v40.64h6.68
			v-22.62c0-0.27-0.01-0.59-0.01-0.97c-0.01-0.38-0.03-0.75-0.05-1.11c-0.02-0.43-0.04-0.86-0.06-1.3l0.24-0.18
			c0.27,0.56,0.52,1.09,0.75,1.59c0.21,0.43,0.42,0.85,0.62,1.26c0.2,0.42,0.36,0.73,0.48,0.94l12.55,22.39h6.77v-40.64h-6.77
			V-5700.854z M-5134.944-5724.284l-13.11,40.64h7.35l2.43-7.979h14.98l2.49,7.979h7.75l-13.07-40.64H-5134.944z
			 M-5155.934-5703.904c0.84-0.69,1.55-1.47,2.14-2.36s1.04-1.87,1.36-2.95c0.32-1.08,0.48-2.24,0.48-3.47
			c0-1.68-0.27-3.23-0.8-4.64c-0.53-1.42-1.32-2.65-2.36-3.68c-1.04-1.03-2.34-1.84-3.89-2.41c-1.55-0.58-3.35-0.87-5.39-0.87
			h-17.01v40.64h7.58v-16.95h7.86l6.77,16.95h8.25l-7.84-18.6C-5157.724-5702.664-5156.774-5703.224-5155.934-5703.904z
			 M-5213.564-5717.514h10.07v33.87h7.58v-33.87h10.06v-6.77h-27.71V-5717.514z M-5219.894-5704.844c-0.93-0.88-1.98-1.61-3.16-2.17
			c-1.17-0.57-2.38-1.07-3.61-1.49c-1.24-0.43-2.44-0.82-3.62-1.18c-1.17-0.35-2.22-0.77-3.15-1.24c-0.93-0.47-1.67-1.04-2.24-1.71
			c-0.57-0.66-0.85-1.5-0.85-2.53c0-1.25,0.48-2.28,1.46-3.09c0.97-0.81,2.38-1.22,4.23-1.22c1.74,0,3.09,0.51,4.07,1.52
			c0.97,1.01,1.46,2.38,1.46,4.09v0.55h7.75v-0.72c0-2.08-0.35-3.88-1.05-5.39c-0.71-1.52-1.66-2.76-2.85-3.73
			c-1.2-0.98-2.6-1.7-4.2-2.16c-1.6-0.46-3.31-0.69-5.12-0.69c-1.79,0-3.51,0.23-5.15,0.69c-1.64,0.46-3.08,1.17-4.32,2.11
			c-1.25,0.95-2.24,2.13-2.98,3.56c-0.74,1.43-1.11,3.1-1.11,5.03c0,1.55,0.18,2.89,0.54,4.04c0.37,1.15,0.87,2.14,1.51,2.98
			c0.64,0.84,1.37,1.55,2.21,2.15c0.84,0.6,1.73,1.12,2.68,1.55c0.94,0.43,1.92,0.811,2.92,1.14c1,0.33,1.98,0.65,2.92,0.97
			c0.95,0.32,1.84,0.66,2.68,1.01c0.84,0.36,1.57,0.79,2.21,1.28c0.64,0.49,1.14,1.08,1.5,1.76c0.37,0.69,0.55,1.51,0.55,2.47
			c0,0.6-0.1,1.19-0.32,1.75c-0.21,0.57-0.56,1.08-1.04,1.54c-0.48,0.45-1.12,0.82-1.91,1.1c-0.79,0.28-1.75,0.42-2.89,0.42
			c-1.04,0-1.96-0.16-2.76-0.47c-0.8-0.31-1.48-0.74-2.04-1.31c-0.56-0.57-0.98-1.25-1.27-2.04c-0.29-0.79-0.44-1.67-0.44-2.63
			c0-0.16,0.01-0.34,0.03-0.55c0.02-0.22,0.03-0.35,0.03-0.41h-7.9c0,0.16-0.01,0.35-0.02,0.59c-0.02,0.25-0.03,0.48-0.03,0.71
			c0,2.09,0.38,3.92,1.14,5.5c0.76,1.58,1.79,2.9,3.08,3.96c1.29,1.06,2.79,1.86,4.48,2.39c1.7,0.53,3.48,0.79,5.35,0.79
			c2.11,0,4.03-0.23,5.79-0.71c1.75-0.47,3.26-1.22,4.53-2.25c1.26-1.03,2.24-2.37,2.95-4.01c0.7-1.64,1.05-3.62,1.05-5.96
			c0-1.87-0.28-3.45-0.85-4.74C-5218.224-5702.884-5218.974-5703.974-5219.894-5704.844z"/>
		<path fill="#1D1D1B" d="M-5299.374-5831.634c-0.07-0.08-0.15-0.16-0.23-0.24c-23.24-23.23-54.14-36.03-87-36.03
			c-32.87,0-63.77,12.8-87,36.03c-23.23,23.24-36.03,54.13-36.03,87c0,32.86,12.8,63.76,36.03,87c23.23,23.24,54.13,36.04,87,36.04
			c32.86,0,63.76-12.8,87-36.04c1.03-1.03,2.06-2.09,3.04-3.16v-0.02h275.25l10.94-56.81l4.6-24.07h29.63l1.13-5.88l14.89-77.94
			l1.12-5.88H-5299.374z M-5386.604-5633.534c-61.39,0-111.34-49.95-111.34-111.34c0-61.39,49.95-111.33,111.34-111.33
			s111.34,49.94,111.34,111.33C-5275.264-5683.484-5325.214-5633.534-5386.604-5633.534z M-5217.854-5690.895
			c-0.71,1.64-1.69,2.98-2.95,4.01c-1.27,1.03-2.78,1.78-4.53,2.25c-1.76,0.48-3.68,0.71-5.79,0.71c-1.87,0-3.65-0.26-5.35-0.79
			c-1.69-0.53-3.19-1.33-4.48-2.39c-1.29-1.06-2.32-2.38-3.08-3.96c-0.76-1.58-1.14-3.41-1.14-5.5c0-0.23,0.01-0.46,0.03-0.71
			c0.01-0.24,0.02-0.43,0.02-0.59h7.9c0,0.06-0.01,0.19-0.03,0.41c-0.02,0.21-0.03,0.39-0.03,0.55c0,0.96,0.15,1.84,0.44,2.63
			c0.29,0.79,0.71,1.47,1.27,2.04c0.56,0.57,1.24,1,2.04,1.31c0.8,0.31,1.72,0.47,2.76,0.47c1.14,0,2.1-0.14,2.89-0.42
			c0.79-0.28,1.43-0.65,1.91-1.1c0.48-0.46,0.83-0.97,1.04-1.54c0.22-0.56,0.32-1.15,0.32-1.75c0-0.96-0.18-1.78-0.55-2.47
			c-0.36-0.68-0.86-1.27-1.5-1.76c-0.64-0.49-1.37-0.92-2.21-1.28c-0.84-0.35-1.73-0.69-2.68-1.01c-0.94-0.32-1.92-0.64-2.92-0.97
			c-1-0.33-1.98-0.71-2.92-1.14c-0.95-0.43-1.84-0.95-2.68-1.55c-0.84-0.6-1.57-1.31-2.21-2.15c-0.64-0.84-1.14-1.83-1.51-2.98
			c-0.36-1.15-0.54-2.49-0.54-4.04c0-1.93,0.37-3.6,1.11-5.03c0.74-1.43,1.73-2.61,2.98-3.56c1.24-0.94,2.68-1.65,4.32-2.11
			c1.64-0.46,3.36-0.69,5.15-0.69c1.81,0,3.52,0.23,5.12,0.69c1.6,0.46,3,1.18,4.2,2.16c1.19,0.97,2.14,2.21,2.85,3.73
			c0.7,1.51,1.05,3.31,1.05,5.39v0.72h-7.75v-0.55c0-1.71-0.49-3.08-1.46-4.09c-0.98-1.01-2.33-1.52-4.07-1.52
			c-1.85,0-3.26,0.41-4.23,1.22c-0.98,0.81-1.46,1.84-1.46,3.09c0,1.03,0.28,1.87,0.85,2.53c0.57,0.67,1.31,1.24,2.24,1.71
			c0.93,0.47,1.98,0.89,3.15,1.24c1.18,0.36,2.38,0.75,3.62,1.18c1.23,0.42,2.44,0.92,3.61,1.49c1.18,0.56,2.23,1.29,3.16,2.17
			c0.92,0.87,1.67,1.96,2.24,3.25c0.57,1.29,0.85,2.87,0.85,4.74C-5216.804-5694.514-5217.154-5692.534-5217.854-5690.895z
			 M-5185.854-5717.514h-10.06v33.87h-7.58v-33.87h-10.07v-6.77h27.71V-5717.514z M-5159.194-5683.645l-6.77-16.95h-7.86v16.95
			h-7.58v-40.64h17.01c2.04,0,3.84,0.29,5.39,0.87c1.55,0.57,2.85,1.38,3.89,2.41c1.04,1.03,1.83,2.26,2.36,3.68
			c0.53,1.41,0.8,2.96,0.8,4.64c0,1.23-0.16,2.39-0.48,3.47c-0.32,1.08-0.77,2.06-1.36,2.95s-1.3,1.67-2.14,2.36
			c-0.84,0.68-1.79,1.24-2.85,1.66l7.84,18.6H-5159.194z M-5120.804-5683.645l-2.49-7.979h-14.98l-2.43,7.979h-7.35l13.11-40.64
			h8.82l13.07,40.64H-5120.804z M-5081.044-5683.645h-6.77l-12.55-22.39c-0.12-0.21-0.28-0.52-0.48-0.94
			c-0.2-0.41-0.41-0.83-0.62-1.26c-0.23-0.5-0.48-1.03-0.75-1.59l-0.24,0.18c0.02,0.44,0.04,0.87,0.06,1.3
			c0.02,0.36,0.04,0.73,0.05,1.11c0,0.38,0.01,0.7,0.01,0.97v22.62h-6.68v-40.64h6.68l12.55,22.39c0.16,0.271,0.35,0.62,0.57,1.04
			c0.22,0.42,0.43,0.84,0.62,1.24c0.21,0.49,0.43,0.99,0.66,1.51l0.18-0.18c-0.02-0.52-0.03-1-0.03-1.44
			c-0.02-0.39-0.03-0.76-0.03-1.13v-23.43h6.77V-5683.645z M-5049.754-5683.645l-2.49-7.979h-14.98l-2.43,7.979h-7.35l13.11-40.64
			h8.82l13.07,40.64H-5049.754z M-4980.994-5747.814h-282.62c-0.67-28.97-11.31-56.26-30.28-77.94h327.78L-4980.994-5747.814z"/>
		<path fill="#FFFFFF" d="M-5293.894-5825.754c18.97,21.68,29.61,48.97,30.28,77.94h282.62l14.88-77.94H-5293.894z
			 M-5016.004-5817.754h7.11l0.06,0.18l-6.39,7.66h-5.88L-5016.004-5817.754z M-5147.224-5817.754h7.11l0.06,0.18l-6.39,7.66h-5.87
			L-5147.224-5817.754z M-5219.224-5788.654c-0.6,1.57-1.47,2.9-2.58,4c-1.12,1.09-2.46,1.95-4.03,2.56
			c-1.56,0.6-3.29,0.91-5.2,0.91h-6.94v15.76h-7.58v-40.64h14.52c2.1,0,3.94,0.3,5.52,0.91c1.58,0.61,2.91,1.46,3.98,2.55
			c1.07,1.09,1.88,2.38,2.42,3.87c0.53,1.5,0.81,3.12,0.81,4.88C-5218.304-5791.944-5218.614-5790.214-5219.224-5788.654z
			 M-5206.194-5765.424h-7.6v-40.64h7.6V-5765.424z M-5176.904-5765.424l-6.77-16.95h-7.87v16.95h-7.58v-40.64h17.01
			c2.05,0,3.84,0.29,5.4,0.87c1.55,0.58,2.85,1.38,3.89,2.41c1.04,1.03,1.82,2.26,2.35,3.68c0.54,1.41,0.8,2.96,0.8,4.64
			c0,1.23-0.16,2.39-0.48,3.47c-0.32,1.08-0.77,2.06-1.36,2.95c-0.58,0.89-1.3,1.67-2.14,2.36c-0.84,0.68-1.79,1.24-2.85,1.66
			l7.84,18.6H-5176.904z M-5138.514-5765.424l-2.49-7.98h-14.99l-2.43,7.98h-7.34l13.1-40.64h8.82l13.08,40.64H-5138.514z
			 M-5105.624-5799.294h-10.07v33.87h-7.57v-33.87h-10.07v-6.77h27.71V-5799.294z M-5075.334-5771.674
			c-0.7,1.64-1.68,2.98-2.95,4.01c-1.26,1.03-2.77,1.78-4.52,2.26c-1.76,0.47-3.69,0.7-5.79,0.7c-1.87,0-3.65-0.26-5.35-0.79
			c-1.7-0.53-3.19-1.33-4.48-2.39c-1.3-1.06-2.32-2.38-3.08-3.96c-0.77-1.58-1.15-3.41-1.15-5.5c0-0.23,0.01-0.46,0.03-0.71
			c0.02-0.24,0.03-0.43,0.03-0.59h7.9c0,0.061-0.01,0.2-0.03,0.41s-0.03,0.39-0.03,0.55c0,0.96,0.15,1.84,0.43,2.63
			c0.29,0.79,0.72,1.47,1.28,2.04s1.24,1.01,2.04,1.31c0.8,0.31,1.72,0.47,2.76,0.47c1.14,0,2.1-0.14,2.89-0.42
			c0.79-0.28,1.43-0.65,1.91-1.1c0.48-0.45,0.83-0.97,1.04-1.53c0.21-0.57,0.32-1.16,0.32-1.75c0-0.97-0.18-1.79-0.55-2.48
			c-0.37-0.68-0.87-1.27-1.5-1.76c-0.64-0.49-1.38-0.92-2.22-1.28c-0.84-0.35-1.73-0.69-2.67-1.01c-0.95-0.32-1.92-0.64-2.92-0.97
			c-1.01-0.32-1.98-0.7-2.92-1.14c-0.95-0.43-1.84-0.95-2.68-1.55c-0.84-0.59-1.58-1.31-2.21-2.15c-0.64-0.84-1.14-1.83-1.51-2.98
			c-0.36-1.15-0.55-2.49-0.55-4.04c0-1.92,0.37-3.6,1.12-5.03c0.74-1.43,1.73-2.61,2.98-3.56c1.24-0.94,2.68-1.65,4.32-2.11
			s3.36-0.69,5.15-0.69c1.81,0,3.52,0.23,5.12,0.69s3,1.18,4.19,2.16c1.2,0.97,2.15,2.21,2.85,3.73c0.71,1.51,1.06,3.31,1.06,5.39
			v0.73h-7.75v-0.55c0-1.72-0.49-3.08-1.46-4.1c-0.98-1.01-2.33-1.52-4.07-1.52c-1.85,0-3.26,0.41-4.24,1.22
			c-0.97,0.81-1.46,1.84-1.46,3.09c0,1.03,0.29,1.87,0.86,2.54c0.56,0.66,1.31,1.23,2.24,1.7c0.92,0.47,1.97,0.89,3.15,1.25
			c1.18,0.35,2.38,0.74,3.62,1.17c1.23,0.42,2.44,0.92,3.61,1.49c1.18,0.57,2.23,1.29,3.16,2.17c0.92,0.87,1.67,1.96,2.24,3.25
			s0.85,2.87,0.85,4.74C-5074.274-5775.294-5074.624-5773.314-5075.334-5771.674z M-5045.564-5765.424l-8.82-18.14l-6.33,7.79v10.35
			h-7.64v-40.64h7.64v20.8l14.86-20.8h8.48l-12.03,16.52l12.38,24.12H-5045.564z M-5007.304-5765.424l-2.49-7.98h-14.98l-2.43,7.98
			h-7.35l13.11-40.64h8.82l13.07,40.64H-5007.304z"/>
		<g>
			<g>
				<g>
					<path d="M-5296.564-5661.054v0.02c0.01-0.01,0.01-0.01,0.02-0.02H-5296.564z"/>
				</g>
			</g>
		</g>
		<path fill="#1D1D1B" d="M-5423.681-5818.102v-17.184h-10.736v19.873c-7.328,2.24-11.527,4.549-10.846,6.039
			c2.41-0.699,6.246-1.02,10.846-0.721v103.301c-10.789,20.734,3.689,52.174,4.75,54.402c-0.742-2.379-10.869-35.689,14.605-51.754
			c24.301-15.324,108.084-8.127,107.795-55.414C-5307.677-5826.529-5384.921-5826.129-5423.681-5818.102z M-5389.101-5753.131
			c-3.76,17.814-23.225,27.123-34.58,34.822v-90.145C-5404.296-5803.785-5381.542-5788.92-5389.101-5753.131z"/>
		<polygon points="-4975.014,-5747.814 -4976.134,-5741.934 -4976.144,-5741.934 		"/>
		<path fill="#1D1D1B" d="M-5219.114-5798.734c-0.54-1.49-1.35-2.78-2.42-3.87c-1.07-1.09-2.4-1.94-3.98-2.55
			c-1.58-0.61-3.42-0.91-5.52-0.91h-14.52v40.64h7.58v-15.76h6.94c1.91,0,3.64-0.31,5.2-0.91c1.57-0.61,2.91-1.47,4.03-2.56
			c1.11-1.1,1.98-2.43,2.58-4c0.61-1.56,0.92-3.29,0.92-5.2C-5218.304-5795.614-5218.584-5797.234-5219.114-5798.734z
			 M-5227.584-5789.464c-0.97,1.06-2.38,1.59-4.23,1.59h-6.16v-11.42h6.16c1.81,0,3.21,0.49,4.21,1.46
			c0.99,0.97,1.49,2.3,1.49,3.979C-5226.114-5791.984-5226.604-5790.524-5227.584-5789.464z"/>
		<path fill="#1D1D1B" d="M-5213.794-5806.064v40.64h7.6v-40.64H-5213.794z"/>
		<path fill="#1D1D1B" d="M-5176.504-5784.024c1.06-0.42,2.01-0.98,2.85-1.66c0.84-0.69,1.56-1.47,2.14-2.36
			c0.59-0.89,1.04-1.87,1.36-2.95c0.32-1.08,0.48-2.24,0.48-3.47c0-1.68-0.26-3.23-0.8-4.64c-0.53-1.42-1.31-2.65-2.35-3.68
			c-1.04-1.03-2.34-1.83-3.89-2.41c-1.56-0.58-3.35-0.87-5.4-0.87h-17.01v40.64h7.58v-16.95h7.87l6.77,16.95h8.24
			L-5176.504-5784.024z M-5179.134-5790.484c-0.85,0.95-2.2,1.43-4.05,1.43h-8.36v-10.24h8.65c1.76,0,3.03,0.43,3.83,1.3
			s1.2,2.04,1.2,3.53C-5177.864-5792.764-5178.284-5791.444-5179.134-5790.484z"/>
		<path fill="#1D1D1B" d="M-5140.114-5817.754h-7.11l-5.09,7.84h5.87l6.39-7.66L-5140.114-5817.754z M-5143.844-5806.064h-8.82
			l-13.1,40.64h7.34l2.43-7.98h14.99l2.49,7.98h7.75L-5143.844-5806.064z M-5153.904-5780.174l4.13-13.57
			c0.16-0.46,0.3-1.01,0.44-1.65c0.13-0.63,0.26-1.229,0.37-1.79c0.14-0.66,0.26-1.34,0.38-2.05h0.23c0.1,0.65,0.21,1.3,0.35,1.93
			c0.09,0.56,0.22,1.16,0.37,1.8c0.16,0.63,0.31,1.22,0.47,1.76l4.08,13.57H-5153.904z"/>
		<path fill="#1D1D1B" d="M-5133.334-5806.064v6.77h10.07v33.87h7.57v-33.87h10.07v-6.77H-5133.334z"/>
		<path fill="#1D1D1B" d="M-5075.124-5782.374c-0.57-1.29-1.32-2.38-2.24-3.25c-0.93-0.88-1.98-1.6-3.16-2.17
			c-1.17-0.57-2.38-1.07-3.61-1.49c-1.24-0.43-2.44-0.82-3.62-1.17c-1.18-0.36-2.23-0.78-3.15-1.25c-0.93-0.47-1.68-1.04-2.24-1.7
			c-0.57-0.67-0.86-1.51-0.86-2.54c0-1.25,0.49-2.28,1.46-3.09c0.98-0.81,2.39-1.22,4.24-1.22c1.74,0,3.09,0.51,4.07,1.52
			c0.97,1.02,1.46,2.38,1.46,4.1v0.55h7.75v-0.73c0-2.08-0.35-3.88-1.06-5.39c-0.7-1.52-1.65-2.76-2.85-3.73
			c-1.19-0.98-2.59-1.7-4.19-2.16s-3.31-0.69-5.12-0.69c-1.79,0-3.51,0.23-5.15,0.69s-3.08,1.17-4.32,2.11
			c-1.25,0.95-2.24,2.13-2.98,3.56c-0.75,1.43-1.12,3.11-1.12,5.03c0,1.55,0.19,2.89,0.55,4.04c0.37,1.15,0.87,2.14,1.51,2.98
			c0.63,0.84,1.37,1.56,2.21,2.15c0.84,0.6,1.73,1.12,2.68,1.55c0.94,0.44,1.91,0.82,2.92,1.14c1,0.33,1.97,0.65,2.92,0.97
			c0.94,0.32,1.83,0.66,2.67,1.01c0.84,0.36,1.58,0.79,2.22,1.28c0.63,0.49,1.13,1.08,1.5,1.76c0.37,0.69,0.55,1.51,0.55,2.48
			c0,0.59-0.11,1.18-0.32,1.75c-0.21,0.56-0.56,1.08-1.04,1.53c-0.48,0.45-1.12,0.82-1.91,1.1c-0.79,0.28-1.75,0.42-2.89,0.42
			c-1.04,0-1.96-0.16-2.76-0.47c-0.8-0.3-1.48-0.74-2.04-1.31s-0.99-1.25-1.28-2.04c-0.28-0.79-0.43-1.67-0.43-2.63
			c0-0.16,0.01-0.34,0.03-0.55s0.03-0.35,0.03-0.41h-7.9c0,0.16-0.01,0.35-0.03,0.59c-0.02,0.25-0.03,0.48-0.03,0.71
			c0,2.09,0.38,3.92,1.15,5.5c0.76,1.58,1.78,2.9,3.08,3.96c1.29,1.06,2.78,1.86,4.48,2.39c1.7,0.53,3.48,0.79,5.35,0.79
			c2.1,0,4.03-0.23,5.79-0.7c1.75-0.48,3.26-1.23,4.52-2.26c1.27-1.03,2.25-2.37,2.95-4.01c0.71-1.64,1.06-3.62,1.06-5.96
			C-5074.274-5779.504-5074.554-5781.084-5075.124-5782.374z"/>
		<path fill="#1D1D1B" d="M-5049.404-5789.544l12.03-16.52h-8.48l-14.86,20.8v-20.8h-7.64v40.64h7.64v-10.35l6.33-7.79l8.82,18.14
			h8.54L-5049.404-5789.544z"/>
		<path fill="#1D1D1B" d="M-5008.894-5817.754h-7.11l-5.1,7.84h5.88l6.39-7.66L-5008.894-5817.754z M-5012.624-5806.064h-8.82
			l-13.11,40.64h7.35l2.43-7.98h14.98l2.49,7.98h7.75L-5012.624-5806.064z M-5022.694-5780.174l4.14-13.57
			c0.15-0.46,0.3-1.01,0.43-1.65c0.14-0.63,0.26-1.229,0.38-1.79c0.13-0.66,0.26-1.34,0.38-2.05h0.23c0.09,0.65,0.21,1.3,0.34,1.93
			c0.1,0.56,0.23,1.16,0.38,1.8c0.15,0.63,0.31,1.22,0.46,1.76l4.08,13.57H-5022.694z"/>
		<path fill="#FFFFFF" d="M-5217.654-5701.594c-0.57-1.29-1.32-2.38-2.24-3.25c-0.93-0.88-1.98-1.61-3.16-2.17
			c-1.17-0.57-2.38-1.07-3.61-1.49c-1.24-0.43-2.44-0.82-3.62-1.18c-1.17-0.35-2.22-0.77-3.15-1.24c-0.93-0.47-1.67-1.04-2.24-1.71
			c-0.57-0.66-0.85-1.5-0.85-2.53c0-1.25,0.48-2.28,1.46-3.09c0.97-0.81,2.38-1.22,4.23-1.22c1.74,0,3.09,0.51,4.07,1.52
			c0.97,1.01,1.46,2.38,1.46,4.09v0.55h7.75v-0.72c0-2.08-0.35-3.88-1.05-5.39c-0.71-1.52-1.66-2.76-2.85-3.73
			c-1.2-0.98-2.6-1.7-4.2-2.16c-1.6-0.46-3.31-0.69-5.12-0.69c-1.79,0-3.51,0.23-5.15,0.69c-1.64,0.46-3.08,1.17-4.32,2.11
			c-1.25,0.95-2.24,2.13-2.98,3.56c-0.74,1.43-1.11,3.1-1.11,5.03c0,1.55,0.18,2.89,0.54,4.04c0.37,1.15,0.87,2.14,1.51,2.98
			c0.64,0.84,1.37,1.55,2.21,2.15c0.84,0.6,1.73,1.12,2.68,1.55c0.94,0.43,1.92,0.811,2.92,1.14c1,0.33,1.98,0.65,2.92,0.97
			c0.95,0.32,1.84,0.66,2.68,1.01c0.84,0.36,1.57,0.79,2.21,1.28c0.64,0.49,1.14,1.08,1.5,1.76c0.37,0.69,0.55,1.51,0.55,2.47
			c0,0.6-0.1,1.19-0.32,1.75c-0.21,0.57-0.56,1.08-1.04,1.54c-0.48,0.45-1.12,0.82-1.91,1.1c-0.79,0.28-1.75,0.42-2.89,0.42
			c-1.04,0-1.96-0.16-2.76-0.47c-0.8-0.31-1.48-0.74-2.04-1.31c-0.56-0.57-0.98-1.25-1.27-2.04c-0.29-0.79-0.44-1.67-0.44-2.63
			c0-0.16,0.01-0.34,0.03-0.55c0.02-0.22,0.03-0.35,0.03-0.41h-7.9c0,0.16-0.01,0.35-0.02,0.59c-0.02,0.25-0.03,0.48-0.03,0.71
			c0,2.09,0.38,3.92,1.14,5.5c0.76,1.58,1.79,2.9,3.08,3.96c1.29,1.06,2.79,1.86,4.48,2.39c1.7,0.53,3.48,0.79,5.35,0.79
			c2.11,0,4.03-0.23,5.79-0.71c1.75-0.47,3.26-1.22,4.53-2.25c1.26-1.03,2.24-2.37,2.95-4.01c0.7-1.64,1.05-3.62,1.05-5.96
			C-5216.804-5698.724-5217.084-5700.304-5217.654-5701.594z"/>
		<path fill="#FFFFFF" d="M-5213.564-5724.284v6.77h10.07v33.87h7.58v-33.87h10.06v-6.77H-5213.564z"/>
		<path fill="#FFFFFF" d="M-5158.784-5702.244c1.06-0.42,2.01-0.98,2.85-1.66c0.84-0.69,1.55-1.47,2.14-2.36s1.04-1.87,1.36-2.95
			c0.32-1.08,0.48-2.24,0.48-3.47c0-1.68-0.27-3.23-0.8-4.64c-0.53-1.42-1.32-2.65-2.36-3.68c-1.04-1.03-2.34-1.84-3.89-2.41
			c-1.55-0.58-3.35-0.87-5.39-0.87h-17.01v40.64h7.58v-16.95h7.86l6.77,16.95h8.25L-5158.784-5702.244z M-5161.414-5708.704
			c-0.85,0.95-2.2,1.43-4.05,1.43h-8.36v-10.24h8.65c1.75,0,3.03,0.43,3.83,1.3c0.8,0.87,1.2,2.04,1.2,3.53
			C-5160.144-5710.984-5160.574-5709.664-5161.414-5708.704z"/>
		<path fill="#FFFFFF" d="M-5126.124-5724.284h-8.82l-13.11,40.64h7.35l2.43-7.979h14.98l2.49,7.979h7.75L-5126.124-5724.284z
			 M-5136.194-5698.395l4.14-13.57c0.15-0.46,0.3-1.01,0.43-1.65c0.14-0.63,0.26-1.23,0.38-1.79c0.13-0.66,0.26-1.34,0.37-2.05h0.24
			c0.09,0.65,0.21,1.3,0.34,1.93c0.1,0.56,0.22,1.16,0.38,1.8c0.15,0.63,0.31,1.22,0.46,1.76l4.08,13.57H-5136.194z"/>
		<path fill="#FFFFFF" d="M-5087.814-5724.284v23.43c0,0.37,0.01,0.74,0.03,1.13c0,0.44,0.01,0.92,0.03,1.44l-0.18,0.18
			c-0.23-0.52-0.45-1.02-0.66-1.51c-0.19-0.4-0.4-0.82-0.62-1.24c-0.22-0.42-0.41-0.77-0.57-1.04l-12.55-22.39h-6.68v40.64h6.68
			v-22.62c0-0.27-0.01-0.59-0.01-0.97c-0.01-0.38-0.03-0.75-0.05-1.11c-0.02-0.43-0.04-0.86-0.06-1.3l0.24-0.18
			c0.27,0.56,0.52,1.09,0.75,1.59c0.21,0.43,0.42,0.85,0.62,1.26c0.2,0.42,0.36,0.73,0.48,0.94l12.55,22.39h6.77v-40.64H-5087.814z"
			/>
		<path fill="#FFFFFF" d="M-5055.074-5724.284h-8.82l-13.11,40.64h7.35l2.43-7.979h14.98l2.49,7.979h7.75L-5055.074-5724.284z
			 M-5065.144-5698.395l4.14-13.57c0.15-0.46,0.3-1.01,0.43-1.65c0.14-0.63,0.26-1.23,0.38-1.79c0.13-0.66,0.26-1.34,0.38-2.05h0.23
			c0.09,0.65,0.21,1.3,0.34,1.93c0.1,0.56,0.23,1.16,0.38,1.8c0.15,0.63,0.31,1.22,0.46,1.76l4.08,13.57H-5065.144z"/>
		<polygon fill="#FFFFFF" points="-5005.744,-5741.934 -5010.374,-5717.864 -5005.774,-5741.934 		"/>
		<polygon fill="#FFFFFF" points="-4975.014,-5747.814 -4976.134,-5741.934 -4976.144,-5741.934 		"/>
		<path fill="#FFFFFF" d="M-5296.544-5661.054c-0.01,0.01-0.01,0.01-0.02,0.02v-0.02H-5296.544z"/>
	</g>
</g>
<g id="Vrstva_2">
</g>
</svg>
